Coordinates
version=1
nRows=16
nColumns=42
inDegrees=yes

Units are S.I. units (second, meters, Newtons, ...)
If the header above contains a line with 'inDegrees', this indicates whether rotational values are in degrees (yes) or radians (no).

endheader
time	pelvis_tilt	pelvis_list	pelvis_rotation	pelvis_tx	pelvis_ty	pelvis_tz	hip_flexion_r	hip_adduction_r	hip_rotation_r	knee_angle_r	knee_adduction_r	knee_angle_r_beta	ankle_angle_r	subtalar_angle_r	mtp_angle_r	hip_flexion_l	hip_adduction_l	hip_rotation_l	knee_angle_l	knee_adduction_l	knee_angle_l_beta	ankle_angle_l	subtalar_angle_l	mtp_angle_l	lumbar_extension	lumbar_bending	lumbar_rotation	arm_flex_r	arm_add_r	arm_rot_r	elbow_flex_r	pro_sup_r	wrist_flex_r	wrist_dev_r	arm_flex_l	arm_add_l	arm_rot_l	elbow_flex_l	pro_sup_l	wrist_flex_l	wrist_dev_l
      4.31000000	      0.23883865	      4.13912851	     12.73106469	      0.86664246	      0.85229471	     -0.20333241	     27.98461195	    -13.04300279	    -33.69650434	     34.09129498	     -7.64243862	      0.59500534	      8.04025903	     34.87525829	     -7.50008142	      6.54372503	      8.68318388	     -4.81849172	     39.51244389	     -7.13575643	      0.68962224	     26.30496250	     20.62794236	     -7.50008142	    -27.42666914	     -0.76756426	     -7.88105505	     -2.60179553	    -10.69853928	    -15.61493168	     44.41280625	     90.00000001	      0.00000000	      0.00000000	     18.10980197	    -12.95939851	     33.70988016	     48.46520837	     90.00000001	      0.00000000	      0.00000000
      4.32000000	      0.41719864	      4.01803049	     12.63495803	      0.87201902	      0.85341015	     -0.20244939	     27.47903852	    -12.46279169	    -32.31360019	     34.19577903	     -7.28065371	      0.59682893	      9.30682629	     32.95282201	     -7.50007806	      5.89827187	      8.31019710	     -4.74461647	     39.30174750	     -6.95161236	      0.68594490	     25.67789979	     20.26560669	     -7.50007806	    -27.56380624	     -0.59685330	     -7.74240910	     -2.25621125	    -10.72391777	    -16.17740452	     44.15226490	     90.00000001	      0.00000000	      0.00000000	     17.83073260	    -13.13281136	     34.10298777	     49.03914296	     90.00000001	      0.00000000	      0.00000000
      4.33000000	      0.39543341	      3.89352010	     12.63120681	      0.87733937	      0.85417140	     -0.20161455	     27.27996803	    -12.11215414	    -32.09018160	     34.39267497	     -7.38100631	      0.60026542	      9.36095821	     32.93001994	     -7.50007788	      5.58771398	      8.08404697	     -4.61481920	     39.31687658	     -7.01828338	      0.68620895	     25.56123546	     20.27147598	     -7.50007788	    -27.45635953	     -0.47747692	     -7.61381358	     -2.16732375	    -10.74874678	    -16.20207157	     44.16959808	     90.00000001	      0.00000000	      0.00000000	     17.53908464	    -13.15814713	     34.16226793	     48.99134016	     90.00000001	      0.00000000	      0.00000000
      4.34000000	      0.45912732	      3.74369129	     12.60364171	      0.88274295	      0.85504339	     -0.20074298	     26.96837521	    -11.67018516	    -31.77364742	     34.55280981	     -7.46901217	      0.60306030	      9.56027799	     32.82862505	     -7.50007763	      5.18331495	      7.71232777	     -4.54637894	     39.31924422	     -6.92803661	      0.68625027	     25.32312234	     20.27574878	     -7.50007763	    -27.41698053	     -0.29045604	     -7.54715185	     -2.03830666	    -10.84369999	    -16.25321795	     44.19192954	     90.00000001	      0.00000000	      0.00000000	     17.22165141	    -13.15600214	     34.25139794	     48.97033819	     90.00000001	      0.00000000	      0.00000000
      4.35000000	      0.72961813	      3.56583644	     12.56018498	      0.88826697	      0.85629190	     -0.19977499	     26.20772782	    -11.06499807	    -31.19013200	     34.32496543	     -7.31986065	      0.59908366	     10.49504192	     32.05928955	     -7.50007648	      4.56196213	      7.19374123	     -4.47635077	     39.32117635	     -6.72696596	      0.68628399	     24.56441790	     20.24161505	     -7.50007648	    -27.61204009	     -0.05004343	     -7.40224695	     -1.81011665	    -10.89900039	    -16.41906080	     44.17017310	     90.00000001	      0.00000000	      0.00000000	     17.07545657	    -13.26741043	     34.47244651	     49.21657816	     90.00000001	      0.00000000	      0.00000000
      4.36000000	      0.69976546	      3.52617514	     12.53262819	      0.89362936	      0.85699736	     -0.19891286	     25.97386755	    -10.82234026	    -31.03036287	     34.50722969	     -7.39525949	      0.60226477	     10.60332213	     31.95782058	     -7.50007626	      4.31395836	      7.01308046	     -4.38532772	     39.45449931	     -6.73314091	      0.68861092	     24.40998108	     20.23952385	     -7.50007626	    -27.49074453	     -0.03648957	     -7.36601341	     -1.73898991	    -10.94059765	    -16.45689455	     44.18459359	     90.00000001	      0.00000000	      0.00000000	     16.77632480	    -13.29184954	     34.56468689	     49.19950699	     90.00000001	      0.00000000	      0.00000000
      4.37000000	      0.83230306	      3.37069021	     12.58450748	      0.89900265	      0.85799917	     -0.19793217	     25.38234840	    -10.32652777	    -30.77476811	     34.33709210	     -7.38837165	      0.59929531	     11.47892601	     31.21881321	     -7.50007479	      3.98677911	      6.53479855	     -4.23727087	     39.67831273	     -6.53459203	      0.69251720	     23.53807190	     20.06297195	     -7.50007479	    -27.53734816	      0.13143555	     -7.42110135	     -1.56684668	    -10.95337463	    -16.65493737	     44.15289477	     90.00000001	      0.00000000	      0.00000000	     16.62228719	    -13.46593179	     34.96917591	     49.56385119	     90.00000001	      0.00000000	      0.00000000
      4.38000000	      0.83347723	      3.35871747	     12.54170693	      0.90433209	      0.85866958	     -0.19709733	     25.07454098	    -10.18291393	    -30.74571967	     34.52155699	     -7.39053916	      0.60251483	     11.60363579	     31.12097794	     -7.50007428	      3.81615125	      6.28744114	     -4.17331025	     40.01711002	     -6.36604277	      0.69843033	     23.27866723	     19.98842804	     -7.50007428	    -27.43876630	      0.15982253	     -7.37003225	     -1.37847201	    -10.98447037	    -16.71246495	     44.19529586	     90.00000001	      0.00000000	      0.00000000	     16.40495547	    -13.59624148	     35.13364257	     49.59344643	     90.00000001	      0.00000000	      0.00000000
      4.39000000	      0.86376328	      3.26148211	     12.53774084	      0.90965098	      0.85938286	     -0.19618361	     24.66514443	     -9.88575639	    -30.93872403	     34.45835362	     -7.50287023	      0.60141173	     12.01197577	     31.01265292	     -7.50007335	      3.70278720	      5.96267855	     -3.95151536	     40.48395926	     -6.21566245	      0.70657838	     22.61986559	     19.78445241	     -7.50007335	    -27.34877899	      0.24867464	     -7.41528804	     -1.25440996	    -10.97566064	    -16.81036668	     44.19658583	     90.00000001	      0.00000000	      0.00000000	     16.23211613	    -13.73889972	     35.46055774	     49.74558807	     90.00000001	      0.00000000	      0.00000000
      4.40000000	      0.87330409	      3.31656422	     12.49659903	      0.91494371	      0.86002846	     -0.19532032	     24.30129042	     -9.79423664	    -31.02315525	     34.52735124	     -7.56436438	      0.60261596	     12.14825765	     31.03029944	     -7.50007306	      3.60731832	      5.81229331	     -3.84080600	     40.96076330	     -6.09438939	      0.71490018	     22.31268323	     19.72617060	     -7.50007306	    -27.27459630	      0.15891363	     -7.40860183	     -1.17256256	    -11.00931169	    -16.84410122	     44.21228855	     90.00000001	      0.00000000	      0.00000000	     16.04916208	    -13.78786129	     35.59180226	     49.75421499	     90.00000001	      0.00000000	      0.00000000
      4.41000000	      0.93775218	      3.32930115	     12.47746841	      0.92019454	      0.86066133	     -0.19446225	     23.86404172	     -9.67572736	    -31.22684763	     34.55886734	     -7.62685640	      0.60316602	     12.37578138	     31.07680538	     -7.50007278	      3.57112618	      5.57820121	     -3.67550973	     41.66587292	     -5.92152265	      0.72720667	     21.79633145	     19.65486885	     -7.50007278	    -27.25033527	      0.12802404	     -7.42260836	     -1.05530080	    -11.02459408	    -16.86848265	     44.23817503	     90.00000001	      0.00000000	      0.00000000	     15.88386274	    -13.85658306	     35.73613574	     49.76457626	     90.00000001	      0.00000000	      0.00000000
      4.42000000	      0.99557887	      3.27702792	     12.52914268	      0.92539977	      0.86125465	     -0.19360057	     23.40724015	     -9.51274294	    -31.56967207	     34.55333046	     -7.70529792	      0.60306938	     12.71655318	     31.19494302	     -7.50007241	      3.63747680	      5.22037565	     -3.46717792	     42.47122307	     -5.67727778	      0.74126268	     21.02626935	     19.50544272	     -7.50007241	    -27.19517488	      0.17951379	     -7.51736586	     -0.92404804	    -11.02986699	    -16.89212451	     44.26590907	     90.00000001	      0.00000000	      0.00000000	     15.85177327	    -13.94998089	     35.90934409	     49.81835022	     90.00000001	      0.00000000	      0.00000000
      4.43000000	      0.99707742	      3.22822521	     12.68556892	      0.93054202	      0.86181634	     -0.19277837	     23.01893741	     -9.42537199	    -32.62219533	     34.48148618	     -8.13469889	      0.60181546	     13.59378230	     32.72402731	     -7.50006816	      3.77619779	      4.93151215	     -2.37192782	     43.37043385	     -4.93508887	      0.75695687	     19.18136425	     17.24934281	     -7.50006816	    -27.08806219	      0.23937033	     -7.66468431	     -0.74169115	    -10.93590958	    -17.12628440	     44.16014823	     90.00000001	      0.00000000	      0.00000000	     15.95185733	    -14.55938757	     37.67884114	     50.36833643	     90.00000001	      0.00000000	      0.00000000
      4.44000000	      1.12561850	      3.26594774	     12.66373150	      0.93567430	      0.86237327	     -0.19195488	     22.50525172	     -9.35836277	    -32.76349350	     34.55712055	     -8.09211003	      0.60313553	     13.74922128	     32.75247417	     -7.50006779	      3.87874347	      4.68674919	     -2.17925137	     44.39742974	     -4.70369296	      0.77488133	     18.57964263	     17.32246745	     -7.50006779	    -27.13738232	      0.18801651	     -7.70126014	     -0.64507808	    -10.95736047	    -17.13414024	     44.18974110	     90.00000001	      0.00000000	      0.00000000	     15.93749876	    -14.58591253	     37.77410338	     50.34158423	     90.00000001	      0.00000000	      0.00000000
      4.45000000	      1.14149617	      3.10203523	     12.75945025	      0.94076735	      0.86277858	     -0.19108281	     22.09920764	     -9.06480882	    -33.17122922	     34.47399333	     -8.21826119	      0.60168469	     14.27178782	     32.92349766	     -7.50006679	      4.23157858	      4.20345958	     -1.73340977	     45.52854460	     -4.31819949	      0.79462301	     17.06676076	     17.09849286	     -7.50006679	    -26.99689881	      0.36041743	     -7.71731287	     -0.50028562	    -10.94899711	    -17.12139316	     44.23961810	     90.00000001	      0.00000000	      0.00000000	     15.92312409	    -14.69739950	     38.05398794	     50.31228274	     90.00000001	      0.00000000	      0.00000000
      4.46000000	      1.23932535	      3.04928648	     12.82091237	      0.94581747	      0.86321370	     -0.19026078	     21.61823928	     -8.88598575	    -33.38875371	     34.49136004	     -8.25182068	      0.60198780	     14.71932413	     33.14270855	     -7.50006575	      4.52244940	      3.84094890	     -1.23001372	     46.75760147	     -3.87177131	      0.81607410	     15.66594628	     16.69383304	     -7.50006575	    -26.98077782	      0.39079376	     -7.80001707	     -0.40221438	    -10.97803079	    -17.09539506	     44.26621481	     90.00000001	      0.00000000	      0.00000000	     15.96385319	    -14.74395350	     38.33358382	     50.29376590	     90.00000001	      0.00000000	      0.00000000
